<svg xmlns="http://www.w3.org/2000/svg" xmlns:xlink="http://www.w3.org/1999/xlink" style="margin: auto; background: transparent; display: block; shape-rendering: auto;" width="200px" height="200px" viewBox="0 0 100 100" preserveAspectRatio="xMidYMid">
 <g transform="translate(50 50)">  <g transform="translate(-19 -19) scale(0.6)"> <g>
<animateTransform attributeName="transform" type="rotate" values="0;45" keyTimes="0;1" dur="0.2s" begin="0s" repeatCount="indefinite"></animateTransform><path d="M31.6448080291428 21.038206311344588 L38.71587584100828 28.109274123210064 L28.109274123210064 38.71587584100828 L21.038206311344588 31.6448080291428 A38 38 0 0 1 7.499999999999998 37.25251669350676 L7.499999999999998 37.25251669350676 L7.499999999999999 47.25251669350676 L-7.499999999999993 47.25251669350676 L-7.499999999999994 37.25251669350676 A38 38 0 0 1 -21.038206311344588 31.6448080291428 L-21.038206311344588 31.6448080291428 L-28.109274123210064 38.71587584100828 L-38.71587584100827 28.109274123210067 L-31.644808029142798 21.03820631134459 A38 38 0 0 1 -37.25251669350676 7.5 L-37.25251669350676 7.5 L-47.25251669350676 7.500000000000001 L-47.25251669350676 -7.499999999999991 L-37.25251669350676 -7.499999999999992 A38 38 0 0 1 -31.6448080291428 -21.038206311344588 L-31.6448080291428 -21.038206311344588 L-38.71587584100828 -28.109274123210064 L-28.10927412321006 -38.71587584100828 L-21.038206311344585 -31.644808029142805 A38 38 0 0 1 -7.5000000000000195 -37.252516693506756 L-7.5000000000000195 -37.252516693506756 L-7.500000000000021 -47.252516693506756 L7.5000000000000036 -47.25251669350676 L7.500000000000005 -37.25251669350676 A38 38 0 0 1 21.038206311344574 -31.644808029142816 L21.038206311344574 -31.644808029142816 L28.10927412321005 -38.71587584100829 L38.71587584100828 -28.109274123210064 L31.644808029142805 -21.038206311344585 A38 38 0 0 1 37.252516693506756 -7.500000000000021 L37.252516693506756 -7.500000000000021 L47.252516693506756 -7.500000000000024 L47.25251669350676 7.500000000000001 L37.25251669350676 7.5000000000000036 A38 38 0 0 1 31.644808029142816 21.038206311344567 M0 -26A26 26 0 1 0 0 26 A26 26 0 1 0 0 -26" fill="#3e6d8d"></path></g></g> <g transform="translate(19 19) scale(0.6)"> <g>
<animateTransform attributeName="transform" type="rotate" values="45;0" keyTimes="0;1" dur="0.2s" begin="-0.1s" repeatCount="indefinite"></animateTransform><path d="M-31.6448080291428 -21.038206311344588 L-38.71587584100828 -28.109274123210064 L-28.10927412321006 -38.71587584100828 L-21.038206311344585 -31.644808029142805 A38 38 0 0 1 -7.5000000000000195 -37.252516693506756 L-7.5000000000000195 -37.252516693506756 L-7.500000000000021 -47.252516693506756 L7.5000000000000036 -47.25251669350676 L7.500000000000005 -37.25251669350676 A38 38 0 0 1 21.038206311344574 -31.644808029142816 L21.038206311344574 -31.644808029142816 L28.10927412321005 -38.71587584100829 L38.71587584100828 -28.109274123210064 L31.644808029142805 -21.038206311344585 A38 38 0 0 1 37.252516693506756 -7.500000000000021 L37.252516693506756 -7.500000000000021 L47.252516693506756 -7.500000000000024 L47.25251669350676 7.500000000000001 L37.25251669350676 7.5000000000000036 A38 38 0 0 1 31.644808029142816 21.038206311344567 L31.644808029142816 21.038206311344567 L38.71587584100829 28.109274123210042 L28.109274123210067 38.71587584100828 L21.038206311344588 31.6448080291428 A38 38 0 0 1 7.500000000000023 37.252516693506756 L7.500000000000023 37.252516693506756 L7.500000000000026 47.252516693506756 L-7.499999999999998 47.25251669350676 L-7.500000000000001 37.25251669350676 A38 38 0 0 1 -21.03820631134454 31.644808029142837 L-21.03820631134454 31.644808029142837 L-28.109274123210003 38.71587584100832 L-38.71587584100825 28.109274123210106 L-31.644808029142784 21.03820631134462 A38 38 0 0 1 -37.252516693506756 7.500000000000027 L-37.252516693506756 7.500000000000027 L-47.252516693506756 7.50000000000003 L-47.25251669350676 -7.499999999999996 L-37.25251669350676 -7.499999999999999 A38 38 0 0 1 -31.644808029142798 -21.03820631134459 M0 -26A26 26 0 1 0 0 26 A26 26 0 1 0 0 -26" fill="#4b9bbe"></path></g></g></g>
<!-- [ldio] generated by https://loading.io/ --></svg>